G04 EAGLE Gerber RS-274X export*
G75*
%MOMM*%
%FSLAX34Y34*%
%LPD*%
%AMOC8*
5,1,8,0,0,1.08239X$1,22.5*%
G01*
%ADD10C,0.254000*%


D10*
X0Y0D02*
X390400Y0D01*
X390400Y482500D01*
X0Y482500D01*
X0Y0D01*
X54791Y28622D02*
X54791Y29798D01*
X54714Y30971D01*
X54560Y32137D01*
X54331Y33291D01*
X54026Y34426D01*
X53648Y35540D01*
X53198Y36626D01*
X52678Y37681D01*
X52090Y38699D01*
X51437Y39677D01*
X50721Y40610D01*
X49946Y41494D01*
X49114Y42326D01*
X48230Y43101D01*
X47297Y43817D01*
X46319Y44470D01*
X45301Y45058D01*
X44246Y45578D01*
X43160Y46028D01*
X42046Y46406D01*
X40911Y46711D01*
X39757Y46940D01*
X38591Y47094D01*
X37418Y47171D01*
X36242Y47171D01*
X35069Y47094D01*
X33903Y46940D01*
X32749Y46711D01*
X31614Y46406D01*
X30500Y46028D01*
X29414Y45578D01*
X28359Y45058D01*
X27341Y44470D01*
X26363Y43817D01*
X25430Y43101D01*
X24546Y42326D01*
X23714Y41494D01*
X22939Y40610D01*
X22223Y39677D01*
X21570Y38699D01*
X20982Y37681D01*
X20462Y36626D01*
X20012Y35540D01*
X19634Y34426D01*
X19329Y33291D01*
X19100Y32137D01*
X18946Y30971D01*
X18870Y29798D01*
X18870Y28622D01*
X18946Y27449D01*
X19100Y26283D01*
X19329Y25129D01*
X19634Y23994D01*
X20012Y22880D01*
X20462Y21794D01*
X20982Y20739D01*
X21570Y19721D01*
X22223Y18743D01*
X22939Y17810D01*
X23714Y16926D01*
X24546Y16094D01*
X25430Y15319D01*
X26363Y14603D01*
X27341Y13950D01*
X28359Y13362D01*
X29414Y12842D01*
X30500Y12392D01*
X31614Y12014D01*
X32749Y11709D01*
X33903Y11480D01*
X35069Y11326D01*
X36242Y11250D01*
X37418Y11250D01*
X38591Y11326D01*
X39757Y11480D01*
X40911Y11709D01*
X42046Y12014D01*
X43160Y12392D01*
X44246Y12842D01*
X45301Y13362D01*
X46319Y13950D01*
X47297Y14603D01*
X48230Y15319D01*
X49114Y16094D01*
X49946Y16926D01*
X50721Y17810D01*
X51437Y18743D01*
X52090Y19721D01*
X52678Y20739D01*
X53198Y21794D01*
X53648Y22880D01*
X54026Y23994D01*
X54331Y25129D01*
X54560Y26283D01*
X54714Y27449D01*
X54791Y28622D01*
X54791Y447722D02*
X54791Y448898D01*
X54714Y450071D01*
X54560Y451237D01*
X54331Y452391D01*
X54026Y453526D01*
X53648Y454640D01*
X53198Y455726D01*
X52678Y456781D01*
X52090Y457799D01*
X51437Y458777D01*
X50721Y459710D01*
X49946Y460594D01*
X49114Y461426D01*
X48230Y462201D01*
X47297Y462917D01*
X46319Y463570D01*
X45301Y464158D01*
X44246Y464678D01*
X43160Y465128D01*
X42046Y465506D01*
X40911Y465811D01*
X39757Y466040D01*
X38591Y466194D01*
X37418Y466271D01*
X36242Y466271D01*
X35069Y466194D01*
X33903Y466040D01*
X32749Y465811D01*
X31614Y465506D01*
X30500Y465128D01*
X29414Y464678D01*
X28359Y464158D01*
X27341Y463570D01*
X26363Y462917D01*
X25430Y462201D01*
X24546Y461426D01*
X23714Y460594D01*
X22939Y459710D01*
X22223Y458777D01*
X21570Y457799D01*
X20982Y456781D01*
X20462Y455726D01*
X20012Y454640D01*
X19634Y453526D01*
X19329Y452391D01*
X19100Y451237D01*
X18946Y450071D01*
X18870Y448898D01*
X18870Y447722D01*
X18946Y446549D01*
X19100Y445383D01*
X19329Y444229D01*
X19634Y443094D01*
X20012Y441980D01*
X20462Y440894D01*
X20982Y439839D01*
X21570Y438821D01*
X22223Y437843D01*
X22939Y436910D01*
X23714Y436026D01*
X24546Y435194D01*
X25430Y434419D01*
X26363Y433703D01*
X27341Y433050D01*
X28359Y432462D01*
X29414Y431942D01*
X30500Y431492D01*
X31614Y431114D01*
X32749Y430809D01*
X33903Y430580D01*
X35069Y430426D01*
X36242Y430350D01*
X37418Y430350D01*
X38591Y430426D01*
X39757Y430580D01*
X40911Y430809D01*
X42046Y431114D01*
X43160Y431492D01*
X44246Y431942D01*
X45301Y432462D01*
X46319Y433050D01*
X47297Y433703D01*
X48230Y434419D01*
X49114Y435194D01*
X49946Y436026D01*
X50721Y436910D01*
X51437Y437843D01*
X52090Y438821D01*
X52678Y439839D01*
X53198Y440894D01*
X53648Y441980D01*
X54026Y443094D01*
X54331Y444229D01*
X54560Y445383D01*
X54714Y446549D01*
X54791Y447722D01*
X376101Y28622D02*
X376101Y29798D01*
X376024Y30971D01*
X375870Y32137D01*
X375641Y33291D01*
X375336Y34426D01*
X374958Y35540D01*
X374508Y36626D01*
X373988Y37681D01*
X373400Y38699D01*
X372747Y39677D01*
X372031Y40610D01*
X371256Y41494D01*
X370424Y42326D01*
X369540Y43101D01*
X368607Y43817D01*
X367629Y44470D01*
X366611Y45058D01*
X365556Y45578D01*
X364470Y46028D01*
X363356Y46406D01*
X362221Y46711D01*
X361067Y46940D01*
X359901Y47094D01*
X358728Y47171D01*
X357552Y47171D01*
X356379Y47094D01*
X355213Y46940D01*
X354059Y46711D01*
X352924Y46406D01*
X351810Y46028D01*
X350724Y45578D01*
X349669Y45058D01*
X348651Y44470D01*
X347673Y43817D01*
X346740Y43101D01*
X345856Y42326D01*
X345024Y41494D01*
X344249Y40610D01*
X343533Y39677D01*
X342880Y38699D01*
X342292Y37681D01*
X341772Y36626D01*
X341322Y35540D01*
X340944Y34426D01*
X340639Y33291D01*
X340410Y32137D01*
X340256Y30971D01*
X340180Y29798D01*
X340180Y28622D01*
X340256Y27449D01*
X340410Y26283D01*
X340639Y25129D01*
X340944Y23994D01*
X341322Y22880D01*
X341772Y21794D01*
X342292Y20739D01*
X342880Y19721D01*
X343533Y18743D01*
X344249Y17810D01*
X345024Y16926D01*
X345856Y16094D01*
X346740Y15319D01*
X347673Y14603D01*
X348651Y13950D01*
X349669Y13362D01*
X350724Y12842D01*
X351810Y12392D01*
X352924Y12014D01*
X354059Y11709D01*
X355213Y11480D01*
X356379Y11326D01*
X357552Y11250D01*
X358728Y11250D01*
X359901Y11326D01*
X361067Y11480D01*
X362221Y11709D01*
X363356Y12014D01*
X364470Y12392D01*
X365556Y12842D01*
X366611Y13362D01*
X367629Y13950D01*
X368607Y14603D01*
X369540Y15319D01*
X370424Y16094D01*
X371256Y16926D01*
X372031Y17810D01*
X372747Y18743D01*
X373400Y19721D01*
X373988Y20739D01*
X374508Y21794D01*
X374958Y22880D01*
X375336Y23994D01*
X375641Y25129D01*
X375870Y26283D01*
X376024Y27449D01*
X376101Y28622D01*
X374831Y448992D02*
X374831Y450168D01*
X374754Y451341D01*
X374600Y452507D01*
X374371Y453661D01*
X374066Y454796D01*
X373688Y455910D01*
X373238Y456996D01*
X372718Y458051D01*
X372130Y459069D01*
X371477Y460047D01*
X370761Y460980D01*
X369986Y461864D01*
X369154Y462696D01*
X368270Y463471D01*
X367337Y464187D01*
X366359Y464840D01*
X365341Y465428D01*
X364286Y465948D01*
X363200Y466398D01*
X362086Y466776D01*
X360951Y467081D01*
X359797Y467310D01*
X358631Y467464D01*
X357458Y467541D01*
X356282Y467541D01*
X355109Y467464D01*
X353943Y467310D01*
X352789Y467081D01*
X351654Y466776D01*
X350540Y466398D01*
X349454Y465948D01*
X348399Y465428D01*
X347381Y464840D01*
X346403Y464187D01*
X345470Y463471D01*
X344586Y462696D01*
X343754Y461864D01*
X342979Y460980D01*
X342263Y460047D01*
X341610Y459069D01*
X341022Y458051D01*
X340502Y456996D01*
X340052Y455910D01*
X339674Y454796D01*
X339369Y453661D01*
X339140Y452507D01*
X338986Y451341D01*
X338910Y450168D01*
X338910Y448992D01*
X338986Y447819D01*
X339140Y446653D01*
X339369Y445499D01*
X339674Y444364D01*
X340052Y443250D01*
X340502Y442164D01*
X341022Y441109D01*
X341610Y440091D01*
X342263Y439113D01*
X342979Y438180D01*
X343754Y437296D01*
X344586Y436464D01*
X345470Y435689D01*
X346403Y434973D01*
X347381Y434320D01*
X348399Y433732D01*
X349454Y433212D01*
X350540Y432762D01*
X351654Y432384D01*
X352789Y432079D01*
X353943Y431850D01*
X355109Y431696D01*
X356282Y431620D01*
X357458Y431620D01*
X358631Y431696D01*
X359797Y431850D01*
X360951Y432079D01*
X362086Y432384D01*
X363200Y432762D01*
X364286Y433212D01*
X365341Y433732D01*
X366359Y434320D01*
X367337Y434973D01*
X368270Y435689D01*
X369154Y436464D01*
X369986Y437296D01*
X370761Y438180D01*
X371477Y439113D01*
X372130Y440091D01*
X372718Y441109D01*
X373238Y442164D01*
X373688Y443250D01*
X374066Y444364D01*
X374371Y445499D01*
X374600Y446653D01*
X374754Y447819D01*
X374831Y448992D01*
M02*
