M48
;GenerationSoftware,Autodesk,EAGLE,9.1.0*%
;CreationDate,2019-04-05T16:32:30Z*%
FMAT,2
ICI,OFF
METRIC,TZ,0000.000
T3C0.900
T2C1.016
T1C1.200
%
G90
M71
T1
X3350Y11430
X8390Y11430
X23670Y11430
X28710Y11430
X13510Y11430
X18550Y11430
T2
X17018Y45466
X17018Y40386
X11049Y37211
X5969Y37211
X27305Y45466
X27305Y40386
T3
X30988Y34798
X28448Y34798
X25908Y34798
X18288Y34798
X15748Y34798
X15748Y17018
X18288Y17018
X30988Y17018
X28448Y17018
X6098Y23749
X12698Y23749
X34290Y39370
X34290Y36830
X34290Y34290
X34290Y31750
X34290Y29210
X34290Y26670
X34290Y24130
X34290Y21590
X34290Y19050
X34290Y16510
X34290Y13970
X34290Y11430
X34290Y8890
M30